<svg width="128" height="128" viewBox="0 0 128 128" fill="none" xmlns="http://www.w3.org/2000/svg">
<g clip-path="url(#clip0)">
<path d="M37.02 119.76C37.02 119.76 30.22 119.41 26.81 114.67C19.44 104.44 15.39 78.86 15.39 42.65C15.39 40.99 15.65 26.24 26.05 15.82C32.8 9.05 42.4 5.62 54.57 5.62C66.65 5.62 76.09 9 82.62 15.66C92.44 25.68 92.66 39.82 92.61 42.55C92.61 78.86 88.55 104.44 81.19 114.67C77.89 119.26 71.4 119.73 70.94 119.76L54 119.73L37.02 119.76V119.76Z" fill="url(#paint0_radial)"/>
<path d="M54.57 7.12C66.23 7.12 75.31 10.35 81.55 16.71C91.15 26.51 91.14 40.91 91.11 42.52V42.64C91.11 78.54 87.15 103.81 79.97 113.79C77.13 117.73 71.42 118.22 70.89 118.25L53.99 118.22L37.1 118.25C36.56 118.21 30.86 117.72 28.02 113.79C20.84 103.81 16.88 78.55 16.88 42.62C16.88 41.99 16.96 27.04 27.1 16.87C33.57 10.41 42.81 7.12 54.57 7.12ZM54.57 4.12C13.56 4.12 13.89 42.04 13.89 42.64C13.89 67.2 15.77 101.89 25.6 115.54C29.5 120.95 37.03 121.25 37.03 121.25L54 121.23L70.97 121.26C70.97 121.26 78.5 120.96 82.4 115.55C92.23 101.9 94.11 67.21 94.11 42.65C94.1 42.04 95.58 4.12 54.57 4.12Z" fill="#3F0091"/>
<path d="M7.81 119.62V124H102.19V119.62C102.19 106.18 78.43 99.72 55 99.75C31.72 99.77 7.81 105.39 7.81 119.62V119.62Z" fill="black"/>
<path d="M53.17 107.23C49.17 107.23 45.91 104.01 45.91 100.06V91.08H62.08V100.06C62.08 104.02 58.82 107.23 54.82 107.23H53.17V107.23Z" fill="#E59600"/>
<path d="M61.08 92.08V100.06C61.08 103.46 58.27 106.23 54.82 106.23H53.17C49.72 106.23 46.91 103.46 46.91 100.06V92.08H61.08ZM63.08 90.08H44.92V100.06C44.92 104.57 48.62 108.23 53.18 108.23H54.83C59.39 108.23 63.09 104.57 63.09 100.06V90.08H63.08Z" fill="#D18100"/>
<path d="M54 95.27C51.7 95.27 49.09 94.77 46.44 93.84C35.1 89.83 21.87 77.5 21.87 55.95C21.87 27.23 39.18 17.04 54 17.04C68.82 17.04 86.13 27.23 86.13 55.95C86.13 77.53 72.87 89.85 61.52 93.85C58.89 94.78 56.29 95.27 54 95.27Z" fill="url(#paint1_linear)"/>
<path d="M54 18.04C62.41 18.04 70.06 21.29 75.55 27.19C81.82 33.92 85.13 43.87 85.13 55.96C85.13 77.02 72.23 89.03 61.19 92.92C58.66 93.81 56.18 94.28 54 94.28C51.81 94.28 49.31 93.8 46.77 92.9C35.74 89 22.87 76.98 22.87 55.96C22.87 43.87 26.18 33.93 32.45 27.19C37.94 21.29 45.59 18.04 54 18.04V18.04ZM54 16.04C36.8 16.04 20.87 28.83 20.87 55.95C20.87 77.74 34.36 90.62 46.1 94.78C48.9 95.77 51.6 96.27 54 96.27C56.38 96.27 59.07 95.78 61.85 94.8C73.61 90.66 87.13 77.77 87.13 55.96C87.13 28.83 71.2 16.04 54 16.04V16.04Z" fill="#ED9E00"/>
<path d="M32.25 41.72L60.4 31.55L47.75 48.16L57.84 46.04L27.6 82.44L29.47 67.19L21.87 70.31L32.25 41.72Z" fill="url(#paint2_linear)"/>
<path d="M91.89 42.65C91.89 42.65 92.91 7.08 54.08 7.08C15.25 7.08 16.11 42.65 16.11 42.65C16.11 42.65 16.44 88.13 19.31 94.04C22.18 99.95 26.51 99.75 26.51 99.75C26.51 99.75 24.48 73.21 24.25 60.71C24.19 57.79 23.31 46.98 29.41 45.62C51.77 40.6 64.42 28.73 64.42 28.73C67.71 35.92 78 42.92 81.69 45.59C84.72 47.78 84.3 56.79 84.24 60.62L81.19 99.68C81.19 99.68 85.87 100.05 88.84 94.04C91.8 88.02 91.89 42.65 91.89 42.65V42.65Z" fill="url(#paint3_radial)"/>
<path d="M57.81 68.05C57.71 68.01 57.6 67.98 57.49 67.97H50.5C50.39 67.98 50.29 68.01 50.18 68.05C49.55 68.31 49.2 68.96 49.5 69.66C49.8 70.36 51.19 72.32 53.99 72.32C56.79 72.32 58.18 70.36 58.48 69.66C58.79 68.97 58.45 68.31 57.81 68.05Z" fill="#E59600"/>
<path d="M37.75 63.91C40.4396 63.91 42.62 61.6535 42.62 58.87C42.62 56.0865 40.4396 53.83 37.75 53.83C35.0604 53.83 32.88 56.0865 32.88 58.87C32.88 61.6535 35.0604 63.91 37.75 63.91Z" fill="#404040"/>
<path d="M70.25 63.91C72.9396 63.91 75.12 61.6535 75.12 58.87C75.12 56.0865 72.9396 53.83 70.25 53.83C67.5604 53.83 65.38 56.0865 65.38 58.87C65.38 61.6535 67.5604 63.91 70.25 63.91Z" fill="#404040"/>
<path d="M44.98 49.82C44.05 48.59 41.91 46.81 37.75 46.81C33.59 46.81 31.44 48.6 30.52 49.82C30.11 50.36 30.21 50.99 30.5 51.37C30.76 51.72 31.54 52.05 32.4 51.76C33.26 51.47 34.94 50.6 37.75 50.58C40.56 50.6 42.24 51.47 43.1 51.76C43.96 52.05 44.74 51.73 45 51.37C45.29 50.99 45.39 50.36 44.98 49.82Z" fill="#6D4C41"/>
<path d="M77.48 49.82C76.55 48.59 74.41 46.81 70.25 46.81C66.09 46.81 63.94 48.6 63.02 49.82C62.61 50.36 62.71 50.99 63 51.37C63.26 51.72 64.04 52.05 64.9 51.76C65.76 51.47 67.44 50.6 70.25 50.58C73.06 50.6 74.74 51.47 75.6 51.76C76.46 52.05 77.24 51.73 77.5 51.37C77.79 50.99 77.89 50.36 77.48 49.82Z" fill="#6D4C41"/>
<path d="M62.32 76.14C59.17 78.01 48.86 78.01 45.71 76.14C43.9 75.07 42.06 76.71 42.81 78.35C43.55 79.96 49.18 83.71 54.04 83.71C58.9 83.71 64.46 79.96 65.2 78.35C65.95 76.71 64.12 75.06 62.32 76.14Z" fill="#795548"/>
<path d="M7.81 126.5C7.66 126.5 7.5 126.3 7.5 126.03V105.88C7.5 101.05 8.42 99.07 10.68 99.07C12.53 99.07 14.98 99.97 17.82 101.02C21.98 102.55 27.15 104.45 33.05 104.45C36.66 104.45 40.1 103.76 43.51 102.35L44.48 126.5H7.81V126.5Z" fill="url(#paint4_linear)"/>
<path d="M10.68 100.57C12.26 100.57 14.71 101.47 17.31 102.43C21.58 104 26.89 105.95 33.06 105.95C36.12 105.95 39.15 105.45 42.1 104.47L42.92 125H9V105.88C9 101.21 9.81 100.57 10.68 100.57V100.57ZM10.68 97.57C6 97.57 6 103.3 6 105.88V126.03C6 127.12 6.81 128 7.81 128H46.04L44.91 100.06C40.68 102.18 36.71 102.95 33.04 102.95C23.35 102.95 15.72 97.57 10.68 97.57V97.57Z" fill="#47474D"/>
<path d="M64.75 126.5L64.61 102.33C68.02 103.72 71.53 104.4 75.25 104.4C81.39 104.4 86.88 102.5 91.29 100.97C94.24 99.95 96.8 99.06 98.63 99.06C100.89 99.06 101.81 101.03 101.81 105.87V126.02C101.81 126.29 101.65 126.49 101.5 126.49H64.75V126.5Z" fill="url(#paint5_linear)"/>
<path d="M98.62 100.57C99.49 100.57 100.3 101.21 100.3 105.88V125H66.24L66.12 104.47C69.07 105.42 72.12 105.9 75.24 105.9C81.63 105.9 87.25 103.95 91.77 102.39C94.48 101.45 97.04 100.57 98.62 100.57V100.57ZM98.62 97.57C93.59 97.57 85.29 102.9 75.24 102.9C71.42 102.9 67.34 102.13 63.09 100L63.25 128H101.48C102.48 128 103.29 127.12 103.29 126.03V105.88C103.3 103.3 103.3 97.57 98.62 97.57V97.57Z" fill="#47474D"/>
<path d="M48.37 126.84L46.21 112L13.12 118.22L19.23 126.72L48.37 126.84Z" fill="url(#paint6_linear)"/>
<path d="M32.7 128.38H48.37L44.92 96.91L15.32 104.11L28.14 121.83L32.7 128.38Z" fill="url(#paint7_linear)"/>
<path d="M59.29 126.84L61.33 112L94.87 118.34L88.76 126.84H59.29Z" fill="url(#paint8_linear)"/>
<path d="M75.05 126.84H59.38L63.3 96.91L92.43 102.58L79.61 120.29L75.05 126.84Z" fill="url(#paint9_linear)"/>
<path d="M97.0919 79.8182L102.003 62.4909C102.541 60.7285 104.029 59.601 105.792 60.1392C107.554 60.6774 108.168 62.4035 107.63 64.1658L103.995 80.0432C107.607 80.7045 112.061 81.833 115.533 83.0818L119.597 75.7839C120.362 74.0724 121.992 73.1673 123.704 73.9318C125.415 74.6963 125.741 76.5406 124.977 78.2521L120.459 88.3335L118.398 93.9684C115.78 101.125 109.038 105.292 101.327 102.472C88.1607 97.6556 91.8249 82.4277 97.0919 79.8182Z" fill="#FFCA28"/>
<path d="M105.458 61.6038C106.651 62.0401 106.294 63.4533 106.203 63.7291C106.19 63.7667 106.189 63.7983 106.175 63.8359L102.539 79.7132C102.446 80.1154 102.529 80.5291 102.743 80.8738C102.922 81.1416 103.175 81.3514 103.476 81.4613C103.551 81.4888 103.639 81.5103 103.718 81.5284C107.551 82.2277 111.871 83.3714 115.014 84.5C115.7 84.7507 116.477 84.46 116.828 83.8216L120.892 76.5237C120.915 76.4896 120.932 76.4426 120.955 76.4085C121.074 76.143 121.739 74.8209 122.959 75.2675L123.081 75.3121C124.087 75.7651 124.023 76.8705 123.652 77.6823C123.652 77.6823 119.517 87.9678 119.507 87.996L117.221 93.5168C114.547 100.216 108.526 103.518 102.065 101.155C95.4062 98.7194 94.0669 93.6189 93.9142 90.8052C93.6732 86.3407 95.6939 82.2137 97.7865 81.1797C98.1653 80.9881 98.4282 80.6478 98.5443 80.243L103.436 62.9404C103.604 62.3948 103.891 61.9571 104.259 61.7083C104.582 61.4962 104.941 61.4464 105.351 61.5754C105.389 61.5891 105.421 61.59 105.458 61.6038V61.6038ZM105.973 60.1951C105.917 60.1744 105.861 60.1538 105.801 60.1426C104.039 59.6044 102.551 60.7319 102.013 62.4943L97.1013 79.8216C91.8343 82.4311 88.1701 97.6591 101.337 102.475C109.047 105.296 115.789 101.128 118.407 93.9718L124.986 78.2556C125.751 76.544 125.396 74.6894 123.685 73.9249C123.613 73.8881 123.557 73.8674 123.482 73.84C121.857 73.2457 120.334 74.1475 119.61 75.778L115.546 83.0759C112.074 81.8271 107.62 80.6985 104.017 80.0407L107.652 64.1633C108.157 62.4633 107.598 60.7894 105.973 60.1951V60.1951Z" fill="#EDA600"/>
<path d="M100.25 89.8433C101.27 89.9076 102.315 90.1086 103.088 90.8175C103.933 91.5949 104.073 92.7536 104.121 93.8465C104.156 94.7966 105.649 94.9378 105.62 93.9689C105.561 92.4993 105.37 91.0132 104.313 89.9133C103.288 88.846 101.815 88.4459 100.382 88.3475C99.4125 88.291 99.2806 89.7867 100.25 89.8433V89.8433Z" fill="#EDA600"/>
<path d="M104.539 88.7715C106.309 89.2909 108.092 88.4314 108.534 86.8465L110.349 80.3124C110.79 78.7276 109.71 77.0228 107.941 76.5034C106.172 75.984 104.388 76.8435 103.946 78.4284L102.131 84.9625C101.703 86.5414 102.77 88.2521 104.539 88.7715Z" fill="#FFCA28"/>
<path d="M107.664 77.9886C108.565 78.3184 109.117 79.1695 108.908 79.9133L107.093 86.4474C106.977 86.8521 106.692 87.078 106.473 87.2108C106.046 87.4484 105.497 87.4926 104.967 87.3413L104.826 87.2897C103.924 86.9599 103.373 86.1088 103.581 85.3651L105.396 78.831C105.513 78.4262 105.797 78.2003 106.016 78.0675C106.444 77.8299 106.993 77.7857 107.523 77.9371L107.664 77.9886ZM108.179 76.5799C108.104 76.5524 108.029 76.5249 107.95 76.5068C106.181 75.9874 104.397 76.8469 103.956 78.4318L102.141 84.9659C101.724 86.485 102.686 88.1041 104.32 88.7019C104.395 88.7294 104.47 88.7569 104.549 88.7749C106.318 89.2943 108.102 88.4348 108.543 86.85L110.358 80.3159C110.772 78.8061 109.804 77.1742 108.179 76.5799Z" fill="#EDA600"/>
<path d="M109.461 90.1034C111.156 90.9148 113.159 90.359 113.92 88.8594L116.456 83.8773C117.217 82.3776 116.465 80.5052 114.761 79.6903C113.067 78.8788 111.064 79.4346 110.302 80.9343L107.767 85.9164C107.005 87.416 107.758 89.2885 109.461 90.1034Z" fill="#FFCA28"/>
<path d="M113.905 80.9531C113.971 80.9772 114.046 81.0046 114.118 81.0415C114.636 81.2843 115.016 81.7002 115.173 82.173C115.261 82.4286 115.317 82.8004 115.118 83.1964L112.583 88.1785C112.23 88.8801 111.228 89.1738 110.317 88.8406C110.252 88.8165 110.176 88.789 110.105 88.7522C109.587 88.5094 109.206 88.0935 109.049 87.6207C108.962 87.3651 108.906 86.9933 109.104 86.5973L111.64 81.6152C111.992 80.9136 112.994 80.6199 113.905 80.9531ZM114.421 79.5444C112.805 78.9535 111.017 79.5345 110.302 80.9343L107.767 85.9164C107.005 87.4161 107.758 89.2885 109.461 90.1034C109.571 90.154 109.689 90.2081 109.802 90.2493C111.417 90.8402 113.206 90.2592 113.92 88.8594L116.456 83.8773C117.217 82.3776 116.465 80.5052 114.761 79.6903C114.652 79.6397 114.533 79.5856 114.421 79.5444Z" fill="#EDA600"/>
<path d="M110.284 84.6225C112.446 85.1469 112.261 87.4858 111.43 88.6513C110.599 89.8168 108.841 90.3449 107.497 89.8852C102.688 88.2434 101.274 88.6739 100.31 89.8545C98.9818 91.477 97.1781 94.2246 96.097 93.9782C92.3975 93.1467 91.3681 89.0327 92.9981 85.0716C94.2023 82.1579 103.074 82.1235 103.074 82.1235C103.074 82.1235 109.248 84.3711 110.284 84.6225V84.6225Z" fill="#FFCA28"/>
<path d="M110.086 86.1258C110.339 86.2186 110.425 86.3349 110.464 86.488C110.577 86.8487 110.463 87.4243 110.206 87.7775C109.771 88.385 108.714 88.7119 107.984 88.4662C103.1 86.7969 100.781 86.907 99.1576 88.9005C98.8852 89.2375 98.5898 89.6086 98.2968 90.0019C97.7281 90.7415 96.7124 92.063 96.17 92.4396C96.0948 92.4121 96.0163 92.394 95.9505 92.37C95.1147 92.0642 93.993 91.5794 93.9719 90.9967C93.6779 89.2387 93.9156 87.3664 94.399 85.6372C94.811 84.6273 98.7958 83.6891 102.831 83.6319C104.118 84.1025 108.946 85.8366 109.942 86.0837C109.983 86.088 110.039 86.1087 110.086 86.1258V86.1258ZM110.601 84.7171C110.498 84.6793 110.391 84.6509 110.284 84.6225C109.248 84.3711 103.083 82.127 103.083 82.127C103.083 82.127 94.2023 82.1579 93.0109 85.0656C91.4831 88.7766 92.2891 92.6279 95.4353 93.7787C95.6513 93.8577 95.8741 93.9179 96.1098 93.9722C97.1944 94.2092 98.9946 91.471 100.323 89.8485C101.284 88.6773 102.701 88.2375 107.51 89.8793C108.854 90.3389 110.612 89.8108 111.443 88.6454C112.218 87.5447 112.423 85.3836 110.601 84.7171V84.7171Z" fill="#EDA600"/>
<path d="M78.8827 130.327L91.7393 95.1207L113.095 102.847L100.389 138.193L78.8827 130.327Z" fill="url(#paint10_linear)"/>
<path d="M111.18 103.744L99.4956 136.269L80.8067 129.433L92.6362 97.0353L111.18 103.744ZM115.013 101.941L90.8459 93.1967L76.9587 131.22L101.292 140.121L115.013 101.941V101.941Z" fill="#47474D"/>
<path d="M88.6376 106.104C90.7694 106.883 93.1296 105.787 93.9094 103.656C94.6892 101.524 93.5932 99.1636 91.4614 98.3838C89.3297 97.6041 86.9694 98.7001 86.1896 100.832C85.4099 102.964 86.5059 105.324 88.6376 106.104Z" fill="#E1BEE7"/>
<path d="M98.6157 109.711C100.747 110.491 103.108 109.395 103.887 107.263C104.667 105.131 103.571 102.771 101.439 101.991C99.3077 101.211 96.9475 102.307 96.1677 104.439C95.3879 106.571 96.4839 108.931 98.6157 109.711Z" fill="#D81B60"/>
<path d="M108.584 113.315C110.716 114.094 113.076 112.998 113.856 110.867C114.636 108.735 113.54 106.375 111.408 105.595C109.276 104.815 106.916 105.911 106.136 108.043C105.357 110.175 106.453 112.535 108.584 113.315Z" fill="#D500F9"/>
<path d="M53.5 88C70.0685 88 83.5 78.3741 83.5 66.5C83.5 54.6259 70.0685 45 53.5 45C36.9315 45 23.5 54.6259 23.5 66.5C23.5 78.3741 36.9315 88 53.5 88Z" fill="url(#paint11_radial)"/>
<path d="M14 136.17C10.42 136.17 7.5 133.25 7.5 129.67V74.84C7.5 71.26 10.42 68.34 14 68.34H93C96.58 68.34 99.5 71.26 99.5 74.84V129.67C99.5 133.25 96.58 136.17 93 136.17H14Z" fill="url(#paint12_linear)"/>
<path d="M93 69.84C95.76 69.84 98 72.08 98 74.84V129.67C98 132.43 95.76 134.67 93 134.67H14C11.24 134.67 9 132.43 9 129.67V74.84C9 72.08 11.24 69.84 14 69.84H93ZM93 66.84H14C9.58 66.84 6 70.42 6 74.84V129.67C6 134.09 9.58 137.67 14 137.67H93C97.42 137.67 101 134.09 101 129.67V74.84C101 70.42 97.42 66.84 93 66.84Z" fill="#00B3C1"/>
<path d="M66.41 116.23C65.04 111.57 64.47 103.79 64.23 98.36C64.08 94.93 61.24 92.23 57.78 92.23H49.23C45.77 92.23 42.93 94.93 42.78 98.36C42.54 103.8 41.97 111.57 40.6 116.23C38.33 123.95 34.79 130.22 40.94 130.22H53.12H53.89H66.07C72.22 130.22 68.67 123.95 66.41 116.23V116.23Z" fill="url(#paint13_linear)"/>
</g>
<defs>
<radialGradient id="paint0_radial" cx="0" cy="0" r="1" gradientUnits="userSpaceOnUse" gradientTransform="translate(54.2507 -7.73278) scale(47.8287)">
<stop stop-color="#6D4C41"/>
<stop offset="1" stop-color="#543930"/>
</radialGradient>
<linearGradient id="paint1_linear" x1="54" y1="94.708" x2="54" y2="17.885" gradientUnits="userSpaceOnUse">
<stop stop-color="#FFB300"/>
<stop offset="0.102" stop-color="#FFB809"/>
<stop offset="0.3707" stop-color="#FFC21A"/>
<stop offset="0.6592" stop-color="#FFC825"/>
<stop offset="1" stop-color="#FFCA28"/>
</linearGradient>
<linearGradient id="paint2_linear" x1="41.134" y1="40" x2="41.134" y2="83.129" gradientUnits="userSpaceOnUse">
<stop stop-color="#EC008C"/>
<stop offset="0.2202" stop-color="#EA0188"/>
<stop offset="0.4213" stop-color="#E5057D"/>
<stop offset="0.6151" stop-color="#DC0B6B"/>
<stop offset="0.8042" stop-color="#CF1351"/>
<stop offset="0.9884" stop-color="#BF1D2F"/>
<stop offset="1" stop-color="#BE1E2D"/>
</linearGradient>
<radialGradient id="paint3_radial" cx="0" cy="0" r="1" gradientUnits="userSpaceOnUse" gradientTransform="translate(53.9835 -0.418281) scale(38.372)">
<stop stop-color="#DFAAFF"/>
<stop offset="1" stop-color="#7000FF"/>
</radialGradient>
<linearGradient id="paint4_linear" x1="25.991" y1="102.61" x2="25.991" y2="128.31" gradientUnits="userSpaceOnUse">
<stop offset="0.0040219" stop-color="#666666"/>
<stop offset="0.0118" stop-color="#656565"/>
<stop offset="0.2735" stop-color="#484747"/>
<stop offset="0.5297" stop-color="#343131"/>
<stop offset="0.7756" stop-color="#272324"/>
<stop offset="1" stop-color="#231F20"/>
</linearGradient>
<linearGradient id="paint5_linear" x1="83.209" y1="102.61" x2="83.209" y2="128.31" gradientUnits="userSpaceOnUse">
<stop offset="0.0040219" stop-color="#666666"/>
<stop offset="0.0118" stop-color="#656565"/>
<stop offset="0.2735" stop-color="#484747"/>
<stop offset="0.5297" stop-color="#343131"/>
<stop offset="0.7756" stop-color="#272324"/>
<stop offset="1" stop-color="#231F20"/>
</linearGradient>
<linearGradient id="paint6_linear" x1="30.742" y1="114.51" x2="30.742" y2="126.72" gradientUnits="userSpaceOnUse">
<stop offset="0.0033902" stop-color="#1369ED"/>
<stop offset="0.2976" stop-color="#1261DB"/>
<stop offset="0.8884" stop-color="#0E4BAB"/>
<stop offset="1" stop-color="#0D47A1"/>
</linearGradient>
<linearGradient id="paint7_linear" x1="31.842" y1="98.805" x2="31.842" y2="129.88" gradientUnits="userSpaceOnUse">
<stop stop-color="#AB47BC"/>
<stop offset="0.2488" stop-color="#A745B8"/>
<stop offset="0.476" stop-color="#9C3EAE"/>
<stop offset="0.6948" stop-color="#8A329C"/>
<stop offset="0.9072" stop-color="#702282"/>
<stop offset="1" stop-color="#621975"/>
</linearGradient>
<linearGradient id="paint8_linear" x1="77.083" y1="115.21" x2="77.083" y2="126.48" gradientUnits="userSpaceOnUse">
<stop offset="0.0033902" stop-color="#1369ED"/>
<stop offset="0.2976" stop-color="#1261DB"/>
<stop offset="0.8884" stop-color="#0E4BAB"/>
<stop offset="1" stop-color="#0D47A1"/>
</linearGradient>
<linearGradient id="paint9_linear" x1="75.908" y1="98.712" x2="75.908" y2="128.26" gradientUnits="userSpaceOnUse">
<stop stop-color="#AB47BC"/>
<stop offset="0.2488" stop-color="#A745B8"/>
<stop offset="0.476" stop-color="#9C3EAE"/>
<stop offset="0.6948" stop-color="#8A329C"/>
<stop offset="0.9072" stop-color="#702282"/>
<stop offset="1" stop-color="#621975"/>
</linearGradient>
<linearGradient id="paint10_linear" x1="102.503" y1="99.0557" x2="89.3104" y2="135.121" gradientUnits="userSpaceOnUse">
<stop offset="0.0040219" stop-color="#666666"/>
<stop offset="0.6314" stop-color="#393637"/>
<stop offset="1" stop-color="#231F20"/>
</linearGradient>
<radialGradient id="paint11_radial" cx="0" cy="0" r="1" gradientUnits="userSpaceOnUse" gradientTransform="translate(53.4998 70.8458) rotate(-90) scale(25.8022 27.5734)">
<stop stop-color="white" stop-opacity="0.9"/>
<stop offset="0.1228" stop-color="white" stop-opacity="0.8"/>
<stop offset="0.3833" stop-color="white" stop-opacity="0.65"/>
<stop offset="0.7569" stop-color="white" stop-opacity="0.25"/>
<stop offset="1" stop-color="white" stop-opacity="0"/>
</radialGradient>
<linearGradient id="paint12_linear" x1="53.5" y1="68.196" x2="53.5" y2="136.61" gradientUnits="userSpaceOnUse">
<stop stop-color="#4DD0E1"/>
<stop offset="1" stop-color="#00BCD4"/>
</linearGradient>
<linearGradient id="paint13_linear" x1="53.5" y1="91.266" x2="53.5" y2="130.54" gradientUnits="userSpaceOnUse">
<stop stop-color="#00BCD4"/>
<stop offset="1" stop-color="#0097A7"/>
</linearGradient>
<clipPath id="clip0">
<rect width="128" height="128" fill="white"/>
</clipPath>
</defs>
</svg>
